<svg xmlns="http://www.w3.org/2000/svg" viewBox="0 0 512 512">
  <defs>
    <radialGradient id="haloPurple" cx="50%" cy="50%" r="50%">
      <stop offset="0%" stop-color="#9f43ff" stop-opacity="0.28"/>
      <stop offset="55%" stop-color="#5c1db6" stop-opacity="0.18"/>
      <stop offset="100%" stop-color="#12021f" stop-opacity="0"/>
    </radialGradient>
    <radialGradient id="haloCyan" cx="50%" cy="50%" r="50%">
      <stop offset="0%" stop-color="#79fff6" stop-opacity="0.22"/>
      <stop offset="100%" stop-color="#79fff6" stop-opacity="0"/>
    </radialGradient>
    <radialGradient id="voidCore" cx="50%" cy="48%" r="58%">
      <stop offset="0%" stop-color="#160432"/>
      <stop offset="25%" stop-color="#0c021d"/>
      <stop offset="70%" stop-color="#070111"/>
      <stop offset="100%" stop-color="#020105"/>
    </radialGradient>
    <radialGradient id="centerGlow" cx="50%" cy="50%" r="42%">
      <stop offset="0%" stop-color="#6121d8" stop-opacity="0.9"/>
      <stop offset="38%" stop-color="#34106f" stop-opacity="0.64"/>
      <stop offset="100%" stop-color="#34106f" stop-opacity="0"/>
    </radialGradient>
    <linearGradient id="swirlPink" x1="0%" y1="0%" x2="100%" y2="100%">
      <stop offset="0%" stop-color="#ff56ff" stop-opacity="0"/>
      <stop offset="22%" stop-color="#ff56ff" stop-opacity="0.72"/>
      <stop offset="55%" stop-color="#b94cff" stop-opacity="0.98"/>
      <stop offset="82%" stop-color="#8d4cff" stop-opacity="0.78"/>
      <stop offset="100%" stop-color="#8d4cff" stop-opacity="0"/>
    </linearGradient>
    <linearGradient id="swirlViolet" x1="100%" y1="0%" x2="0%" y2="100%">
      <stop offset="0%" stop-color="#6c7dff" stop-opacity="0"/>
      <stop offset="24%" stop-color="#9f53ff" stop-opacity="0.7"/>
      <stop offset="58%" stop-color="#6f2fff" stop-opacity="0.95"/>
      <stop offset="84%" stop-color="#2e9cff" stop-opacity="0.58"/>
      <stop offset="100%" stop-color="#2e9cff" stop-opacity="0"/>
    </linearGradient>
    <linearGradient id="spark" x1="0%" y1="0%" x2="100%" y2="0%">
      <stop offset="0%" stop-color="#ffffff" stop-opacity="0"/>
      <stop offset="26%" stop-color="#ffffff" stop-opacity="0.88"/>
      <stop offset="58%" stop-color="#7cefff" stop-opacity="0.98"/>
      <stop offset="100%" stop-color="#7cefff" stop-opacity="0"/>
    </linearGradient>
    <clipPath id="blobClip">
      <circle cx="256" cy="256" r="146"/>
      <circle cx="256" cy="92" r="42"/>
      <circle cx="376" cy="136" r="34"/>
      <circle cx="422" cy="256" r="38"/>
      <circle cx="374" cy="378" r="36"/>
      <circle cx="256" cy="424" r="42"/>
      <circle cx="138" cy="380" r="34"/>
      <circle cx="90" cy="256" r="38"/>
      <circle cx="136" cy="136" r="34"/>
    </clipPath>
  </defs>

  <g opacity="0.95">
    <g fill="url(#haloPurple)">
      <circle cx="256" cy="256" r="176"/>
      <circle cx="256" cy="92" r="56"/>
      <circle cx="376" cy="136" r="46"/>
      <circle cx="422" cy="256" r="50"/>
      <circle cx="374" cy="378" r="48"/>
      <circle cx="256" cy="424" r="56"/>
      <circle cx="138" cy="380" r="46"/>
      <circle cx="90" cy="256" r="50"/>
      <circle cx="136" cy="136" r="46"/>
    </g>
    <g fill="url(#haloCyan)" opacity="0.6">
      <circle cx="256" cy="92" r="32"/>
      <circle cx="422" cy="256" r="28"/>
      <circle cx="256" cy="424" r="32"/>
      <circle cx="90" cy="256" r="28"/>
    </g>
  </g>

  <g clip-path="url(#blobClip)">
    <rect width="512" height="512" fill="url(#voidCore)"/>
    <circle cx="256" cy="256" r="112" fill="url(#centerGlow)"/>

    <g fill="none" stroke-linecap="round">
      <ellipse cx="256" cy="256" rx="132" ry="120" transform="rotate(16 256 256)" stroke="url(#swirlPink)" stroke-width="15" stroke-dasharray="360 82 172 88"/>
      <ellipse cx="256" cy="256" rx="124" ry="112" transform="rotate(-12 256 256)" stroke="url(#swirlViolet)" stroke-width="11" stroke-dasharray="280 64 142 72"/>
      <ellipse cx="256" cy="256" rx="102" ry="94" transform="rotate(28 256 256)" stroke="url(#swirlPink)" stroke-width="10" stroke-dasharray="228 58 138 64"/>
      <ellipse cx="256" cy="256" rx="82" ry="76" transform="rotate(-24 256 256)" stroke="url(#swirlViolet)" stroke-width="8" stroke-dasharray="176 42 108 52"/>
      <ellipse cx="256" cy="256" rx="60" ry="56" transform="rotate(12 256 256)" stroke="url(#swirlPink)" stroke-width="6" stroke-dasharray="124 34 76 38"/>
    </g>

    <g opacity="0.78">
      <path d="M354 162c28 18 52 46 62 84" fill="none" stroke="url(#spark)" stroke-width="9" stroke-linecap="round"/>
      <path d="M150 332c-12-24-18-52-16-84" fill="none" stroke="url(#spark)" stroke-width="8" stroke-linecap="round"/>
      <path d="M188 144c22-12 44-18 70-18" fill="none" stroke="url(#spark)" stroke-width="6" stroke-linecap="round"/>
      <path d="M252 388c30-2 56-12 82-32" fill="none" stroke="url(#spark)" stroke-width="6" stroke-linecap="round"/>
    </g>

    <g fill="#ffffff" opacity="0.9">
      <circle cx="214" cy="194" r="5"/>
      <circle cx="324" cy="214" r="4"/>
      <circle cx="274" cy="320" r="4"/>
    </g>
    <g fill="#fff2aa" opacity="0.55">
      <circle cx="316" cy="172" r="3.5"/>
      <circle cx="208" cy="304" r="3"/>
      <circle cx="280" cy="230" r="2.5"/>
    </g>
  </g>
</svg>
